<mxfile host="app.diagrams.net" modified="2023-12-05T11:13:43.153Z" agent="Mozilla/5.0 (Windows NT 10.0; Win64; x64) AppleWebKit/537.36 (KHTML, like Gecko) Chrome/119.0.0.0 Safari/537.36 Edg/119.0.0.0" etag="v-XQrvA2TUXXMEzL5r_s" version="22.1.5" type="github">
  <diagram name="Page-1" id="KYuWMJmiR7H3UaC-g5s9">
    <mxGraphModel dx="1113" dy="594" grid="1" gridSize="10" guides="1" tooltips="1" connect="1" arrows="1" fold="1" page="1" pageScale="1" pageWidth="827" pageHeight="1169" math="0" shadow="0">
      <root>
        <mxCell id="0" />
        <mxCell id="1" parent="0" />
        <mxCell id="J_kNGodoUKY9twf9flr4-1" value="&lt;font face=&quot;Verdana&quot; style=&quot;font-size: 16px;&quot;&gt;Abstergo SI - Vue Métie&lt;/font&gt;&lt;font face=&quot;Helvetica&quot; style=&quot;font-size: 16px;&quot;&gt;r&lt;/font&gt;" style="rounded=0;whiteSpace=wrap;html=1;verticalAlign=top;align=center;movable=1;resizable=1;rotatable=1;deletable=1;editable=1;locked=0;connectable=1;fillColor=#b1ddf0;strokeColor=#10739e;" parent="1" vertex="1">
          <mxGeometry x="40" y="40" width="1000" height="1340" as="geometry" />
        </mxCell>
        <mxCell id="bNXU1JucXEZNY31L4AdU-1" value="Direction" style="rounded=0;whiteSpace=wrap;html=1;fontSize=12;fillColor=#FFB570;strokeColor=#d79b00;fontFamily=Verdana;horizontal=1;fontStyle=0" vertex="1" parent="1">
          <mxGeometry x="130" y="115" width="100" height="40" as="geometry" />
        </mxCell>
        <mxCell id="bNXU1JucXEZNY31L4AdU-2" value="&lt;font color=&quot;#ffffff&quot;&gt;Stratégie et Supervision d&#39;Entreprise&lt;br style=&quot;font-size: 12px;&quot;&gt;&lt;br style=&quot;font-size: 12px;&quot;&gt;Développement et mise en œuvre de stratégies d&#39;entreprise&lt;/font&gt;" style="rounded=0;whiteSpace=wrap;html=1;fontSize=12;verticalAlign=top;fontFamily=Verdana;horizontal=1;fontStyle=0;fillColor=#003366;" vertex="1" parent="1">
          <mxGeometry x="270" y="115" width="650" height="195" as="geometry" />
        </mxCell>
        <mxCell id="bNXU1JucXEZNY31L4AdU-4" value="Décisions stratégiques, informations confidentielles" style="shape=hexagon;perimeter=hexagonPerimeter2;whiteSpace=wrap;html=1;fixedSize=1;fontSize=12;fontFamily=Verdana;rounded=0;horizontal=1;fontStyle=0" vertex="1" parent="1">
          <mxGeometry x="600" y="190" width="280" height="35" as="geometry" />
        </mxCell>
        <mxCell id="bNXU1JucXEZNY31L4AdU-5" value="Décisions stratégiques, informations confidentielles" style="shape=parallelogram;perimeter=parallelogramPerimeter;whiteSpace=wrap;html=1;fixedSize=1;fontSize=12;fontFamily=Verdana;rounded=0;horizontal=1;fontStyle=0" vertex="1" parent="1">
          <mxGeometry x="652.5" y="240" width="210" height="40" as="geometry" />
        </mxCell>
        <mxCell id="bNXU1JucXEZNY31L4AdU-6" value="Protection des informations stratégiques" style="rounded=0;whiteSpace=wrap;html=1;fontSize=12;fontFamily=Verdana;horizontal=1;fontStyle=0" vertex="1" parent="1">
          <mxGeometry x="330" y="190" width="241.5" height="40" as="geometry" />
        </mxCell>
        <mxCell id="bNXU1JucXEZNY31L4AdU-8" value="&lt;b&gt;&lt;font color=&quot;#ffffff&quot;&gt;Gestion Administrative et Financière&lt;br style=&quot;font-size: 12px;&quot;&gt;&lt;br style=&quot;font-size: 12px;&quot;&gt;Gestion des ressources humaines, financières et administratives&lt;/font&gt;&lt;/b&gt;" style="rounded=0;whiteSpace=wrap;html=1;fontSize=12;verticalAlign=top;fontFamily=Verdana;horizontal=1;fontStyle=0;fillColor=#4CAF50;" vertex="1" parent="1">
          <mxGeometry x="270" y="340" width="650" height="190" as="geometry" />
        </mxCell>
        <mxCell id="bNXU1JucXEZNY31L4AdU-9" value="Confidentialité des données financières et personnelles" style="rounded=0;whiteSpace=wrap;html=1;fontSize=12;fontFamily=Verdana;horizontal=1;fontStyle=0" vertex="1" parent="1">
          <mxGeometry x="330" y="415" width="250" height="40" as="geometry" />
        </mxCell>
        <mxCell id="bNXU1JucXEZNY31L4AdU-10" value="Données RH, informations financières" style="shape=hexagon;perimeter=hexagonPerimeter2;whiteSpace=wrap;html=1;fixedSize=1;fontSize=12;fontFamily=Verdana;rounded=0;horizontal=1;fontStyle=0" vertex="1" parent="1">
          <mxGeometry x="600" y="415" width="280" height="40" as="geometry" />
        </mxCell>
        <mxCell id="bNXU1JucXEZNY31L4AdU-11" value="RGPD, réglementations administratifs" style="shape=parallelogram;perimeter=parallelogramPerimeter;whiteSpace=wrap;html=1;fixedSize=1;fontSize=12;fontFamily=Verdana;rounded=0;horizontal=1;fontStyle=0" vertex="1" parent="1">
          <mxGeometry x="670" y="470" width="190" height="40" as="geometry" />
        </mxCell>
        <mxCell id="bNXU1JucXEZNY31L4AdU-13" value="Tous les processus métier" style="shape=step;perimeter=stepPerimeter;whiteSpace=wrap;html=1;fixedSize=1;fontSize=12;fontFamily=Verdana;rounded=0;horizontal=1;fontStyle=0" vertex="1" parent="1">
          <mxGeometry x="90" y="250" width="260" height="40" as="geometry" />
        </mxCell>
        <mxCell id="bNXU1JucXEZNY31L4AdU-14" value="Support opérationnel &lt;br&gt;pour tous les services" style="shape=step;perimeter=stepPerimeter;whiteSpace=wrap;html=1;fixedSize=1;fontSize=12;fontFamily=Verdana;rounded=0;horizontal=1;fontStyle=0" vertex="1" parent="1">
          <mxGeometry x="80" y="470" width="270" height="40" as="geometry" />
        </mxCell>
        <mxCell id="bNXU1JucXEZNY31L4AdU-15" value="R&amp;amp;D" style="rounded=0;whiteSpace=wrap;html=1;fontSize=12;fontFamily=Verdana;horizontal=1;fillColor=#FFB570;fontStyle=0" vertex="1" parent="1">
          <mxGeometry x="130" y="570" width="100" height="40" as="geometry" />
        </mxCell>
        <mxCell id="bNXU1JucXEZNY31L4AdU-16" value="&lt;b&gt;&lt;font color=&quot;#ffffff&quot;&gt;Recherche et Développements de produits&lt;br style=&quot;font-size: 12px;&quot;&gt;&lt;br style=&quot;font-size: 12px;&quot;&gt;Processus de développement, de tests et de validation de nouveaux produits&lt;/font&gt;&lt;/b&gt;" style="rounded=0;whiteSpace=wrap;html=1;fontSize=12;verticalAlign=top;fontFamily=Verdana;horizontal=1;fontStyle=0;fillColor=#9C27B0;" vertex="1" parent="1">
          <mxGeometry x="270" y="570" width="650" height="190" as="geometry" />
        </mxCell>
        <mxCell id="bNXU1JucXEZNY31L4AdU-17" value="Confidentialité des données financières et personnelles" style="rounded=0;whiteSpace=wrap;html=1;fontSize=12;fontFamily=Verdana;horizontal=1;fontStyle=0" vertex="1" parent="1">
          <mxGeometry x="330" y="640" width="250" height="40" as="geometry" />
        </mxCell>
        <mxCell id="bNXU1JucXEZNY31L4AdU-18" value="Données RH, informations financières" style="shape=hexagon;perimeter=hexagonPerimeter2;whiteSpace=wrap;html=1;fixedSize=1;fontSize=12;fontFamily=Verdana;rounded=0;horizontal=1;fontStyle=0" vertex="1" parent="1">
          <mxGeometry x="603.75" y="642.5" width="270" height="35" as="geometry" />
        </mxCell>
        <mxCell id="bNXU1JucXEZNY31L4AdU-19" value="RGPD, réglementations administratifs" style="shape=parallelogram;perimeter=parallelogramPerimeter;whiteSpace=wrap;html=1;fixedSize=1;fontSize=12;fontFamily=Verdana;rounded=0;horizontal=1;fontStyle=0" vertex="1" parent="1">
          <mxGeometry x="657.5" y="695" width="190" height="40" as="geometry" />
        </mxCell>
        <mxCell id="bNXU1JucXEZNY31L4AdU-20" value="Collaboration avec Production et Commercial" style="shape=step;perimeter=stepPerimeter;whiteSpace=wrap;html=1;fixedSize=1;fontSize=12;fontFamily=Verdana;rounded=0;horizontal=1;fontStyle=0" vertex="1" parent="1">
          <mxGeometry x="80" y="695" width="270" height="40" as="geometry" />
        </mxCell>
        <mxCell id="bNXU1JucXEZNY31L4AdU-21" value="Production" style="rounded=0;whiteSpace=wrap;html=1;fontSize=12;fontFamily=Verdana;horizontal=1;fillColor=#FFB570;fontStyle=0" vertex="1" parent="1">
          <mxGeometry x="135" y="810" width="95" height="35" as="geometry" />
        </mxCell>
        <mxCell id="bNXU1JucXEZNY31L4AdU-22" value="&lt;b&gt;&lt;font color=&quot;#ffffff&quot;&gt;Production de Capteurs IoT&lt;br style=&quot;font-size: 12px;&quot;&gt;&lt;br style=&quot;font-size: 12px;&quot;&gt;Fabrication des capteurs&lt;/font&gt;&lt;/b&gt;" style="rounded=0;whiteSpace=wrap;html=1;fontSize=12;verticalAlign=top;fontFamily=Verdana;horizontal=1;fontStyle=0;fillColor=#607D8B;" vertex="1" parent="1">
          <mxGeometry x="270" y="810" width="650" height="195" as="geometry" />
        </mxCell>
        <mxCell id="bNXU1JucXEZNY31L4AdU-23" value="Sécurité des processus &lt;br&gt;de production" style="rounded=0;whiteSpace=wrap;html=1;fontSize=12;fontFamily=Verdana;horizontal=1;fontStyle=0" vertex="1" parent="1">
          <mxGeometry x="330" y="885" width="250" height="40" as="geometry" />
        </mxCell>
        <mxCell id="bNXU1JucXEZNY31L4AdU-24" value="Données de fabrication, contrôle qualité" style="shape=hexagon;perimeter=hexagonPerimeter2;whiteSpace=wrap;html=1;fixedSize=1;fontSize=12;fontFamily=Verdana;rounded=0;horizontal=1;fontStyle=0" vertex="1" parent="1">
          <mxGeometry x="600" y="890" width="271" height="30" as="geometry" />
        </mxCell>
        <mxCell id="bNXU1JucXEZNY31L4AdU-25" value="Normes industrielles, qualité" style="shape=parallelogram;perimeter=parallelogramPerimeter;whiteSpace=wrap;html=1;fixedSize=1;fontSize=12;fontFamily=Verdana;rounded=0;horizontal=1;fontStyle=0" vertex="1" parent="1">
          <mxGeometry x="630" y="945" width="217.5" height="40" as="geometry" />
        </mxCell>
        <mxCell id="bNXU1JucXEZNY31L4AdU-26" value="Collaboration avec R&amp;amp;D &lt;br&gt;et Commercial" style="shape=step;perimeter=stepPerimeter;whiteSpace=wrap;html=1;fixedSize=1;fontSize=12;fontFamily=Verdana;rounded=0;horizontal=1;fontStyle=0" vertex="1" parent="1">
          <mxGeometry x="80" y="945" width="270" height="40" as="geometry" />
        </mxCell>
        <mxCell id="bNXU1JucXEZNY31L4AdU-27" value="Commercial" style="rounded=0;whiteSpace=wrap;html=1;fontSize=12;fontFamily=Verdana;horizontal=1;fillColor=#FFB570;fontStyle=0" vertex="1" parent="1">
          <mxGeometry x="130" y="1050" width="100" height="40" as="geometry" />
        </mxCell>
        <mxCell id="bNXU1JucXEZNY31L4AdU-28" value="&lt;b&gt;&lt;font color=&quot;#ffffff&quot;&gt;Vente et Commercialisation&lt;br style=&quot;font-size: 12px;&quot;&gt;&lt;br style=&quot;font-size: 12px;&quot;&gt;Processus de vente, marketing et support client&lt;/font&gt;&lt;/b&gt;" style="rounded=0;whiteSpace=wrap;html=1;fontSize=12;verticalAlign=top;fontFamily=Verdana;horizontal=1;fontStyle=0;fillColor=#FF9800;" vertex="1" parent="1">
          <mxGeometry x="270" y="1050" width="650" height="210" as="geometry" />
        </mxCell>
        <mxCell id="bNXU1JucXEZNY31L4AdU-29" value="Confidentialité des données &lt;br&gt;clients" style="rounded=0;whiteSpace=wrap;html=1;fontSize=12;fontFamily=Verdana;horizontal=1;fontStyle=0" vertex="1" parent="1">
          <mxGeometry x="340" y="1140" width="235.75" height="40" as="geometry" />
        </mxCell>
        <mxCell id="bNXU1JucXEZNY31L4AdU-30" value="Informations clients, stratégies de vente" style="shape=hexagon;perimeter=hexagonPerimeter2;whiteSpace=wrap;html=1;fixedSize=1;fontSize=12;fontFamily=Verdana;rounded=0;horizontal=1;fontStyle=0" vertex="1" parent="1">
          <mxGeometry x="607.5" y="1145" width="252.5" height="30" as="geometry" />
        </mxCell>
        <mxCell id="bNXU1JucXEZNY31L4AdU-31" value="RGPD, réglementations commerciales" style="shape=parallelogram;perimeter=parallelogramPerimeter;whiteSpace=wrap;html=1;fixedSize=1;fontSize=12;fontFamily=Verdana;rounded=0;horizontal=1;fontStyle=0" vertex="1" parent="1">
          <mxGeometry x="652.5" y="1200" width="195" height="40" as="geometry" />
        </mxCell>
        <mxCell id="bNXU1JucXEZNY31L4AdU-32" value="Collaboration avec Production et &lt;br&gt;réponse aux besoins du marché" style="shape=step;perimeter=stepPerimeter;whiteSpace=wrap;html=1;fixedSize=1;fontSize=12;fontFamily=Verdana;rounded=0;horizontal=1;fontStyle=0" vertex="1" parent="1">
          <mxGeometry x="75" y="1200" width="285" height="40" as="geometry" />
        </mxCell>
        <mxCell id="bNXU1JucXEZNY31L4AdU-33" value="Administratif" style="rounded=0;whiteSpace=wrap;html=1;fontSize=12;fontFamily=Verdana;horizontal=1;fillColor=#FFB570;fontStyle=0" vertex="1" parent="1">
          <mxGeometry x="130" y="340" width="100" height="40" as="geometry" />
        </mxCell>
        <mxCell id="bNXU1JucXEZNY31L4AdU-34" style="edgeStyle=orthogonalEdgeStyle;rounded=0;orthogonalLoop=1;jettySize=auto;html=1;exitX=0.5;exitY=1;exitDx=0;exitDy=0;fontFamily=Verdana;horizontal=1;fontStyle=0;fontSize=12;" edge="1" parent="1" source="bNXU1JucXEZNY31L4AdU-10" target="bNXU1JucXEZNY31L4AdU-10">
          <mxGeometry relative="1" as="geometry" />
        </mxCell>
      </root>
    </mxGraphModel>
  </diagram>
</mxfile>
